{
    "asset" : {
        "generator" : "Khronos glTF Blender I/O v1.8.19",
        "version" : "2.0"
    },
    "scene" : 0,
    "scenes" : [
        {
            "name" : "Scene",
            "nodes" : [
                0
            ]
        }
    ],
    "nodes" : [
        {
            "mesh" : 0,
            "name" : "\u6905\u5b5014"
        }
    ],
    "materials" : [
        {
            "doubleSided" : true,
            "name" : "Mat3d66-598906-11-608",
            "pbrMetallicRoughness" : {
                "baseColorFactor" : [
                    0.09803900122642517,
                    0.09803900122642517,
                    0.09803900122642517,
                    1
                ],
                "metallicFactor" : 0
            }
        },
        {
            "doubleSided" : true,
            "name" : "Mat3d66-598906-12-398",
            "pbrMetallicRoughness" : {
                "baseColorFactor" : [
                    0.4666669964790344,
                    0.4235289990901947,
                    0.38431400060653687,
                    1
                ],
                "metallicFactor" : 0
            }
        }
    ],
    "meshes" : [
        {
            "name" : "Obj3d66-598906-29-432",
            "primitives" : [
                {
                    "attributes" : {
                        "POSITION" : 0,
                        "NORMAL" : 1,
                        "TEXCOORD_0" : 2
                    },
                    "indices" : 3,
                    "material" : 0
                },
                {
                    "attributes" : {
                        "POSITION" : 4,
                        "NORMAL" : 5,
                        "TEXCOORD_0" : 6
                    },
                    "indices" : 7,
                    "material" : 1
                }
            ]
        }
    ],
    "accessors" : [
        {
            "bufferView" : 0,
            "componentType" : 5126,
            "count" : 7877,
            "max" : [
                0.25947731733322144,
                0.8115795850753784,
                0.23457251489162445
            ],
            "min" : [
                -0.2153993844985962,
                0.37742745876312256,
                -0.23457251489162445
            ],
            "type" : "VEC3"
        },
        {
            "bufferView" : 1,
            "componentType" : 5126,
            "count" : 7877,
            "type" : "VEC3"
        },
        {
            "bufferView" : 2,
            "componentType" : 5126,
            "count" : 7877,
            "type" : "VEC2"
        },
        {
            "bufferView" : 3,
            "componentType" : 5123,
            "count" : 25632,
            "type" : "SCALAR"
        },
        {
            "bufferView" : 4,
            "componentType" : 5126,
            "count" : 4854,
            "max" : [
                0.19440549612045288,
                0.38314610719680786,
                0.21321482956409454
            ],
            "min" : [
                -0.25947731733322144,
                0,
                -0.2098328173160553
            ],
            "type" : "VEC3"
        },
        {
            "bufferView" : 5,
            "componentType" : 5126,
            "count" : 4854,
            "type" : "VEC3"
        },
        {
            "bufferView" : 6,
            "componentType" : 5126,
            "count" : 4854,
            "type" : "VEC2"
        },
        {
            "bufferView" : 7,
            "componentType" : 5123,
            "count" : 16080,
            "type" : "SCALAR"
        }
    ],
    "bufferViews" : [
        {
            "buffer" : 0,
            "byteLength" : 94524,
            "byteOffset" : 0
        },
        {
            "buffer" : 0,
            "byteLength" : 94524,
            "byteOffset" : 94524
        },
        {
            "buffer" : 0,
            "byteLength" : 63016,
            "byteOffset" : 189048
        },
        {
            "buffer" : 0,
            "byteLength" : 51264,
            "byteOffset" : 252064
        },
        {
            "buffer" : 0,
            "byteLength" : 58248,
            "byteOffset" : 303328
        },
        {
            "buffer" : 0,
            "byteLength" : 58248,
            "byteOffset" : 361576
        },
        {
            "buffer" : 0,
            "byteLength" : 38832,
            "byteOffset" : 419824
        },
        {
            "buffer" : 0,
            "byteLength" : 32160,
            "byteOffset" : 458656
        }
    ],
    "buffers" : [
        {
            "byteLength" : 490816,
            "uri" : "data:application/octet-stream;base64,"
        }
    ]
}
